HIERARCHY
ROOT Root
{
  OFFSET 0.0 0.0 0.0
  CHANNELS 6 Xposition Yposition Zposition Zrotation Yrotation Xrotation
  JOINT Hips
  {
    OFFSET 0.0 100.0 0.0
    CHANNELS 6 Xposition Yposition Zposition Zrotation Yrotation Xrotation
    JOINT Spine1
    {
      OFFSET 5.003913 -0.037094 -0.013727
      CHANNELS 3 Zrotation Yrotation Xrotation
      JOINT Spine2
      {
        OFFSET 7.125363 -1e-06 0.0
        CHANNELS 3 Zrotation Yrotation Xrotation
        JOINT Chest
        {
          OFFSET 7.594027 1e-06 0.0
          CHANNELS 3 Zrotation Yrotation Xrotation
          JOINT Neck1
          {
            OFFSET 26.313086 -0.460272 -0.181672
            CHANNELS 3 Zrotation Yrotation Xrotation
            JOINT Neck2
            {
              OFFSET 8.045911 0.0 0.0
              CHANNELS 3 Zrotation Yrotation Xrotation
              JOINT Head
              {
                OFFSET 6.432774 0.0 0.0
                CHANNELS 3 Zrotation Yrotation Xrotation
                JOINT HeadEnd
                {
                  OFFSET 16.169773 0.06451 0.00362
                  CHANNELS 3 Zrotation Yrotation Xrotation
                }
                JOINT Jaw
                {
                  OFFSET 0.108741 3.12938 0.002639
                  CHANNELS 3 Zrotation Yrotation Xrotation
                }
                JOINT LeftEye
                {
                  OFFSET 4.45173 8.166359 3.206392
                  CHANNELS 3 Zrotation Yrotation Xrotation
                }
                JOINT RightEye
                {
                  OFFSET 4.436895 8.135758 -3.222429
                  CHANNELS 3 Zrotation Yrotation Xrotation
                }
              }
            }
          }
          JOINT LeftShoulder
          {
            OFFSET 23.218927 5.195579 1.621656
            CHANNELS 3 Zrotation Yrotation Xrotation
            JOINT LeftArm
            {
              OFFSET 15.902118 2e-06 -2e-06
              CHANNELS 3 Zrotation Yrotation Xrotation
              JOINT LeftForeArm
              {
                OFFSET 28.739307 0.0 -1e-06
                CHANNELS 3 Zrotation Yrotation Xrotation
                JOINT LeftHand
                {
                  OFFSET 27.093981 -4e-06 0.0
                  CHANNELS 3 Zrotation Yrotation Xrotation
                  JOINT LeftHandThumb1
                  {
                    OFFSET 2.276781 3.380274 0.83384
                    CHANNELS 3 Zrotation Yrotation Xrotation
                    JOINT LeftHandThumb2
                    {
                      OFFSET 4.705309 -1e-06 -1e-06
                      CHANNELS 3 Zrotation Yrotation Xrotation
                      JOINT LeftHandThumb3
                      {
                        OFFSET 2.798515 0.0 3e-06
                        CHANNELS 3 Zrotation Yrotation Xrotation
                        JOINT LeftHandThumbEnd
                        {
                          OFFSET 3.180793 4e-06 -4e-06
                          CHANNELS 3 Zrotation Yrotation Xrotation
                        }
                      }
                    }
                  }
                  JOINT LeftHandIndex1
                  {
                    OFFSET 3.247786 2.352677 0.137192
                    CHANNELS 3 Zrotation Yrotation Xrotation
                    JOINT LeftHandIndex2
                    {
                      OFFSET 6.367095 1e-06 0.0
                      CHANNELS 3 Zrotation Yrotation Xrotation
                      JOINT LeftHandIndex3
                      {
                        OFFSET 3.662364 0.0 0.0
                        CHANNELS 3 Zrotation Yrotation Xrotation
                        JOINT LeftHandIndex4
                        {
                          OFFSET 2.329242 4e-06 -4e-06
                          CHANNELS 3 Zrotation Yrotation Xrotation
                          JOINT LeftHandIndexEnd
                          {
                            OFFSET 2.767823 1e-06 0.0
                            CHANNELS 3 Zrotation Yrotation Xrotation
                          }
                        }
                      }
                    }
                  }
                  JOINT LeftHandMiddle1
                  {
                    OFFSET 3.163612 0.945023 -0.406112
                    CHANNELS 3 Zrotation Yrotation Xrotation
                    JOINT LeftHandMiddle2
                    {
                      OFFSET 6.276789 3e-06 0.0
                      CHANNELS 3 Zrotation Yrotation Xrotation
                      JOINT LeftHandMiddle3
                      {
                        OFFSET 4.35652 -1e-06 4e-06
                        CHANNELS 3 Zrotation Yrotation Xrotation
                        JOINT LeftHandMiddle4
                        {
                          OFFSET 2.996877 0.0 8e-06
                          CHANNELS 3 Zrotation Yrotation Xrotation
                          JOINT LeftHandMiddleEnd
                          {
                            OFFSET 2.323256 3e-06 -4e-06
                            CHANNELS 3 Zrotation Yrotation Xrotation
                          }
                        }
                      }
                    }
                  }
                  JOINT LeftHandRing1
                  {
                    OFFSET 2.882606 -0.309162 0.107445
                    CHANNELS 3 Zrotation Yrotation Xrotation
                    JOINT LeftHandRing2
                    {
                      OFFSET 6.033198 0.0 4e-06
                      CHANNELS 3 Zrotation Yrotation Xrotation
                      JOINT LeftHandRing3
                      {
                        OFFSET 4.350578 3e-06 0.0
                        CHANNELS 3 Zrotation Yrotation Xrotation
                        JOINT LeftHandRing4
                        {
                          OFFSET 2.651321 2e-06 -7e-06
                          CHANNELS 3 Zrotation Yrotation Xrotation
                          JOINT LeftHandRingEnd
                          {
                            OFFSET 1.937663 1e-06 -4e-06
                            CHANNELS 3 Zrotation Yrotation Xrotation
                          }
                        }
                      }
                    }
                  }
                  JOINT LeftHandPinky1
                  {
                    OFFSET 2.865315 -1.525436 0.575687
                    CHANNELS 3 Zrotation Yrotation Xrotation
                    JOINT LeftHandPinky2
                    {
                      OFFSET 5.54936 1e-06 -8e-06
                      CHANNELS 3 Zrotation Yrotation Xrotation
                      JOINT LeftHandPinky3
                      {
                        OFFSET 3.070974 0.0 -4e-06
                        CHANNELS 3 Zrotation Yrotation Xrotation
                        JOINT LeftHandPinky4
                        {
                          OFFSET 1.549672 1e-06 0.0
                          CHANNELS 3 Zrotation Yrotation Xrotation
                          JOINT LeftHandPinkyEnd
                          {
                            OFFSET 1.952123 0.0 0.0
                            CHANNELS 3 Zrotation Yrotation Xrotation
                          }
                        }
                      }
                    }
                  }
                }
              }
            }
          }
          JOINT RightShoulder
          {
            OFFSET 23.161716 5.296122 -1.380114
            CHANNELS 3 Zrotation Yrotation Xrotation
            JOINT RightArm
            {
              OFFSET -16.027195 -2e-06 1.1e-05
              CHANNELS 3 Zrotation Yrotation Xrotation
              JOINT RightForeArm
              {
                OFFSET -28.736639 4e-06 2e-06
                CHANNELS 3 Zrotation Yrotation Xrotation
                JOINT RightHand
                {
                  OFFSET -27.133619 6e-06 0.0
                  CHANNELS 3 Zrotation Yrotation Xrotation
                  JOINT RightHandThumb1
                  {
                    OFFSET -2.274328 -3.351035 -0.83067
                    CHANNELS 3 Zrotation Yrotation Xrotation
                    JOINT RightHandThumb2
                    {
                      OFFSET -4.703594 -3e-06 2e-06
                      CHANNELS 3 Zrotation Yrotation Xrotation
                      JOINT RightHandThumb3
                      {
                        OFFSET -2.794935 -4e-06 -3e-06
                        CHANNELS 3 Zrotation Yrotation Xrotation
                        JOINT RightHandThumbEnd
                        {
                          OFFSET -3.183852 4e-06 1e-06
                          CHANNELS 3 Zrotation Yrotation Xrotation
                        }
                      }
                    }
                  }
                  JOINT RightHandIndex1
                  {
                    OFFSET -3.253496 -2.33755 -0.127667
                    CHANNELS 3 Zrotation Yrotation Xrotation
                    JOINT RightHandIndex2
                    {
                      OFFSET -6.344434 0.0 0.0
                      CHANNELS 3 Zrotation Yrotation Xrotation
                      JOINT RightHandIndex3
                      {
                        OFFSET -3.654871 0.0 -8e-06
                        CHANNELS 3 Zrotation Yrotation Xrotation
                        JOINT RightHandIndex4
                        {
                          OFFSET -2.327586 -1e-06 0.0
                          CHANNELS 3 Zrotation Yrotation Xrotation
                          JOINT RightHandIndexEnd
                          {
                            OFFSET -2.770001 3e-06 8e-06
                            CHANNELS 3 Zrotation Yrotation Xrotation
                          }
                        }
                      }
                    }
                  }
                  JOINT RightHandMiddle1
                  {
                    OFFSET -3.168223 -0.944764 0.411762
                    CHANNELS 3 Zrotation Yrotation Xrotation
                    JOINT RightHandMiddle2
                    {
                      OFFSET -6.266691 -1e-06 -4e-06
                      CHANNELS 3 Zrotation Yrotation Xrotation
                      JOINT RightHandMiddle3
                      {
                        OFFSET -4.348901 0.0 0.0
                        CHANNELS 3 Zrotation Yrotation Xrotation
                        JOINT RightHandMiddle4
                        {
                          OFFSET -3.00024 2e-06 -4e-06
                          CHANNELS 3 Zrotation Yrotation Xrotation
                          JOINT RightHandMiddleEnd
                          {
                            OFFSET -2.321477 -4e-06 -4e-06
                            CHANNELS 3 Zrotation Yrotation Xrotation
                          }
                        }
                      }
                    }
                  }
                  JOINT RightHandRing1
                  {
                    OFFSET -2.885654 0.293261 -0.119232
                    CHANNELS 3 Zrotation Yrotation Xrotation
                    JOINT RightHandRing2
                    {
                      OFFSET -6.032835 -1e-06 -4e-06
                      CHANNELS 3 Zrotation Yrotation Xrotation
                      JOINT RightHandRing3
                      {
                        OFFSET -4.33881 0.0 -4e-06
                        CHANNELS 3 Zrotation Yrotation Xrotation
                        JOINT RightHandRing4
                        {
                          OFFSET -2.654903 -4e-06 -4e-06
                          CHANNELS 3 Zrotation Yrotation Xrotation
                          JOINT RightHandRingEnd
                          {
                            OFFSET -1.935122 0.0 4e-06
                            CHANNELS 3 Zrotation Yrotation Xrotation
                          }
                        }
                      }
                    }
                  }
                  JOINT RightHandPinky1
                  {
                    OFFSET -2.866241 1.503904 -0.60527
                    CHANNELS 3 Zrotation Yrotation Xrotation
                    JOINT RightHandPinky2
                    {
                      OFFSET -5.553177 -2e-06 0.0
                      CHANNELS 3 Zrotation Yrotation Xrotation
                      JOINT RightHandPinky3
                      {
                        OFFSET -3.062664 -1e-06 -4e-06
                        CHANNELS 3 Zrotation Yrotation Xrotation
                        JOINT RightHandPinky4
                        {
                          OFFSET -1.546529 2e-06 4e-06
                          CHANNELS 3 Zrotation Yrotation Xrotation
                          JOINT RightHandPinkyEnd
                          {
                            OFFSET -1.952341 0.0 -4e-06
                            CHANNELS 3 Zrotation Yrotation Xrotation
                          }
                        }
                      }
                    }
                  }
                }
              }
            }
          }
        }
      }
    }
    JOINT LeftLeg
    {
      OFFSET -8.443107 2.567604 10.043214
      CHANNELS 3 Zrotation Yrotation Xrotation
      JOINT LeftShin
      {
        OFFSET 43.229198 1e-06 -1e-06
        CHANNELS 3 Zrotation Yrotation Xrotation
        JOINT LeftFoot
        {
          OFFSET 42.298611 1e-06 1e-06
          CHANNELS 3 Zrotation Yrotation Xrotation
          JOINT LeftToeBase
          {
            OFFSET 14.165858 1e-06 0.0
            CHANNELS 3 Zrotation Yrotation Xrotation
            JOINT LeftToeEnd
            {
              OFFSET 6.7141 -0.234461 0.0
              CHANNELS 3 Zrotation Yrotation Xrotation
            }
          }
        }
      }
    }
    JOINT RightLeg
    {
      OFFSET -8.303923 2.592729 -10.047278
      CHANNELS 3 Zrotation Yrotation Xrotation
      JOINT RightShin
      {
        OFFSET -43.369682 0.0 1e-06
        CHANNELS 3 Zrotation Yrotation Xrotation
        JOINT RightFoot
        {
          OFFSET -42.260784 4e-06 2e-06
          CHANNELS 3 Zrotation Yrotation Xrotation
          JOINT RightToeBase
          {
            OFFSET -14.222245 -2e-06 -1e-06
            CHANNELS 3 Zrotation Yrotation Xrotation
            JOINT RightToeEnd
            {
              OFFSET -6.660062 0.232574 -2e-06
              CHANNELS 3 Zrotation Yrotation Xrotation
            }
          }
        }
      }
    }
  }
}
MOTION
Frames: 4
Frame Time: 0.03333333333333333
0.0 0.0 0.0 0.0 -0.0 0.0 5.867301 98.917999 -0.68197 87.886642 4.452137 90.088417 -0.455151 0.913121 0.106848 -11.135777 -0.272825 0.555789 19.576298 0.547631 -0.977872 19.094633 3.908383 2.66391 -2.689968 -0.223804 1.109603 -38.295326 -0.470127 1.968431 6e-06 -0.0 0.0 0.037026 -0.032507 -0.077829 0.124973 -0.108637 -0.100067 0.143248 0.036854 -0.04865 -135.096786 -69.703758 157.670868 43.226959 -45.744648 10.952524 32.412357 0.103829 0.082854 0.136108 -11.063651 6.25989 17.636625 -26.32284 52.411339 -19.466669 -14.395619 29.410475 3e-06 -8.774842 1e-06 16.107378 -18.458769 6.250602 -0.609779 -1.795654 -3.88933 -4.8071 -11.046838 -2.937854 -1.2e-05 -20.976118 1.9e-05 -5.020012 -25.033743 -4.031882 7e-06 -2e-06 -0.0 -10.634541 -5.686981 -3.565597 10.573271 -17.922989 -3.113891 -1.1e-05 -13.821271 1.7e-05 -0.501811 -31.181734 -4.027004 -11.906297 -59.881409 7.430589 -13.982719 -7.150212 -2.875051 13.772739 -8.401504 -3.218244 0.34769 -34.211739 0.771706 -0.963067 -17.733517 2.621062 0.0 0.0 -1e-06 -17.346436 -20.095249 -4.201782 21.757578 -1.638366 3.866439 -2e-06 -6.33885 7e-06 -1.697604 -22.591904 -6.194025 -1e-06 -7e-06 -4e-06 23.64048 -70.636559 178.776825 30.929279 -49.293892 4.60855 37.301861 0.066064 -0.013965 -3.280453 -14.714561 17.892105 22.182098 -20.375904 49.933372 -16.701752 -16.743504 28.476534 1.7e-05 -12.690592 -1e-06 15.818285 -17.868433 2.866457 -0.105926 -1.513853 -4.275879 -5.039045 -5.612874 -2.953561 -1.4e-05 -11.020532 3e-06 -6.111313 -15.895389 -3.840496 0.0 3e-06 3e-06 -10.283366 -5.680297 -4.341844 11.028262 -11.302382 -2.372623 -1.38429 -14.238585 -6.320134 -0.625457 -26.924234 -3.827632 -4.719271 -50.006176 -3.258013 -13.70852 -7.363489 -3.720939 18.141102 -14.052705 -3.242659 -2.5e-05 -18.787279 4e-06 -0.42973 -8.456063 2.555516 -1e-06 2e-06 2e-06 -15.923545 -20.094498 -5.473588 30.419159 -7.190771 1.735948 -9e-06 -8.162928 4e-06 -1.861931 -22.861506 -6.167954 0.0 -4e-06 -2e-06 -177.885986 -13.286256 -21.413984 15.748919 -0.021216 0.685301 -81.715187 11.994855 -11.017655 -6.082062 1.403481 2.045994 -1.000001 0.0 0.0 4.479986 -8.215999 -28.339903 12.035733 0.078758 0.346662 -78.634544 11.577542 -7.89835 -5.764394 0.537216 1.617111 -1.000002 1e-06 -0.0 
0.0 0.0 0.0 0.0 -0.0 0.0 5.919532 98.952843 -0.778185 87.910934 4.419421 90.393387 -0.43845 0.855492 0.094556 -11.137543 -0.244075 0.6283 19.468864 0.517529 -0.961286 18.356649 4.010593 2.722306 -2.647073 -0.260326 1.104502 -38.473171 -0.534776 1.855658 6e-06 -0.0 0.0 0.04182 -0.009457 -0.032309 0.13191 -0.085552 -0.053742 0.151734 0.059027 -0.004304 -135.224503 -69.746956 157.553329 43.370224 -45.975941 10.37905 32.657795 0.084282 0.088799 0.282403 -11.145375 5.876168 17.636679 -26.322802 52.411503 -19.466822 -14.395619 29.410624 1.3e-05 -8.774894 -8e-06 16.191853 -18.459513 6.238586 -0.609786 -1.79567 -3.88935 -4.80714 -11.046925 -2.937889 -2e-05 -20.976282 -4e-05 -5.020019 -25.034016 -4.032003 9e-06 1e-06 0.0 -10.63459 -5.68703 -3.565609 10.573312 -17.923096 -3.113946 -1.2e-05 -13.821378 -2.7e-05 -0.501741 -31.182068 -4.027186 -11.860744 -60.00037 7.494507 -13.982785 -7.150275 -2.875058 13.772794 -8.401545 -3.218268 0.347718 -34.212009 0.771583 -0.963038 -17.733658 2.621012 1e-06 -1e-06 -2e-06 -17.346531 -20.095404 -4.201811 21.757687 -1.638341 3.86647 -7e-06 -6.338896 -1.6e-05 -1.697608 -22.592138 -6.194178 0.0 -6e-06 1e-06 23.643476 -70.651245 178.734146 30.636459 -49.533634 5.073018 37.247295 0.020769 0.040392 -3.131494 -14.897714 18.450827 22.18215 -20.375919 49.933601 -16.701849 -16.743568 28.476692 4.4e-05 -12.690671 -3e-06 15.749402 -17.85478 2.89308 -0.105926 -1.513865 -4.275901 -5.039084 -5.612921 -2.953576 -3.8e-05 -11.020605 -1e-05 -6.111394 -15.895537 -3.840547 1e-06 1e-06 3e-06 -10.283416 -5.680345 -4.34186 11.028302 -11.302432 -2.372648 -1.384318 -14.238702 -6.320195 -0.625484 -26.924469 -3.827731 -4.639287 -49.924404 -3.364922 -13.708583 -7.363551 -3.720953 18.141178 -14.052764 -3.242691 -4.4e-05 -18.787413 -3.5e-05 -0.429738 -8.456122 2.55551 0.0 -1e-06 -2e-06 -15.92364 -20.094637 -5.473608 30.419313 -7.190757 1.735962 -2.3e-05 -8.162976 -1.3e-05 -1.861952 -22.8617 -6.168085 1e-06 -7e-06 -1e-06 -178.10788 -13.280346 -21.046537 15.882132 -0.016288 0.670164 -81.764465 11.997739 -10.975374 -6.164572 1.428227 2.040985 -1.000002 -0.0 0.0 4.515232 -8.192819 -28.413668 11.958924 0.071266 0.308417 -78.688217 11.44243 -8.005517 -5.865033 0.530641 1.612223 -1.000003 1e-06 0.0 
0.0 0.0 0.0 0.0 -0.0 0.0 5.917011 99.006416 -0.871744 87.929344 4.327902 90.800362 -0.419009 0.810057 0.099937 -11.129757 -0.243133 0.67035 19.323006 0.495282 -0.944525 17.391886 4.116468 2.824596 -2.608135 -0.309025 1.073984 -38.94006 -0.606523 1.851033 6e-06 0.0 1e-06 0.045991 -0.001103 -0.021147 0.142687 -0.083241 -0.040512 0.161449 0.072925 0.004958 -135.394928 -69.829338 157.51561 43.482113 -46.17683 9.910563 32.894478 0.111695 0.091497 0.350822 -11.251443 5.443436 17.636719 -26.322767 52.411377 -19.46685 -14.395639 29.410589 6e-06 -8.774903 -5e-06 16.256081 -18.42968 6.205366 -0.609781 -1.795671 -3.889345 -4.807139 -11.046926 -2.937879 -6e-06 -20.97629 -4.1e-05 -5.020022 -25.034008 -4.031989 6e-06 0.0 -1e-06 -10.634595 -5.687028 -3.565602 10.573339 -17.923119 -3.11395 1e-06 -13.821381 -2.4e-05 -0.501727 -31.182068 -4.027156 -11.786182 -60.054287 7.491807 -13.982794 -7.15027 -2.875051 13.772817 -8.401558 -3.218271 0.347751 -34.212044 0.771577 -0.963019 -17.733671 2.621014 -0.0 -0.0 1e-06 -17.346539 -20.095398 -4.201799 21.757717 -1.638365 3.866466 -2e-06 -6.338897 -1.4e-05 -1.697591 -22.592134 -6.194159 2e-06 -6e-06 -2e-06 23.541874 -70.66864 178.801743 30.291042 -49.780823 5.708115 37.056652 0.028036 0.068627 -2.945068 -15.067967 19.258915 22.182159 -20.375816 49.933388 -16.701876 -16.743534 28.476591 1.9e-05 -12.690656 -1.4e-05 15.700184 -17.817591 2.911514 -0.105923 -1.513868 -4.275888 -5.039069 -5.612909 -2.953564 -1.3e-05 -11.020592 -1.8e-05 -6.111347 -15.895498 -3.840528 -0.0 3e-06 1e-06 -10.283407 -5.680333 -4.341846 11.028311 -11.302438 -2.372646 -1.384295 -14.238679 -6.320176 -0.62543 -26.924423 -3.827706 -4.615291 -49.827633 -3.388339 -13.708574 -7.363532 -3.720941 18.141191 -14.052775 -3.242693 -1e-06 -18.787376 -4.6e-05 -0.429712 -8.456102 2.5555 -1e-06 -3e-06 -0.0 -15.923613 -20.094603 -5.473594 30.419304 -7.190812 1.735954 -2e-06 -8.162962 -1.9e-05 -1.861889 -22.861654 -6.16806 -0.0 -3e-06 -2e-06 -178.3573 -13.280381 -20.651848 15.872392 -0.013844 0.657051 -81.749161 12.10772 -10.986867 -6.155413 1.43738 2.038638 -1.000002 -0.0 -0.0 4.546698 -8.116945 -28.588636 11.779521 0.067949 0.283053 -78.605461 11.27987 -8.077582 -5.922951 0.524547 1.606544 -1.000005 1e-06 -0.0 
0.0 0.0 0.0 0.0 -0.0 0.0 5.868112 99.050461 -0.954469 87.926018 4.174412 91.22287 -0.388215 0.788471 0.110416 -11.105044 -0.251808 0.722116 19.140928 0.481898 -0.971337 16.112087 4.20303 2.939238 -2.578817 -0.37032 1.033674 -39.685425 -0.726851 1.955367 6e-06 -0.0 1e-06 0.044632 0.000455 -0.021977 0.158906 -0.090332 -0.036764 0.171468 0.083107 -0.000162 -135.530701 -69.969826 157.441528 43.501194 -46.407066 9.687618 33.14629 0.17465 0.09379 0.346205 -11.357071 4.984023 17.63673 -26.322947 52.411537 -19.466888 -14.395721 29.410658 -2.3e-05 -8.774912 5e-06 16.311008 -18.425863 6.168557 -0.609776 -1.795666 -3.889353 -4.807104 -11.046895 -2.937876 5.7e-05 -20.976263 -8e-06 -5.019966 -25.033926 -4.03192 8e-06 3e-06 -1e-06 -10.634587 -5.686994 -3.565608 10.573398 -17.923124 -3.113952 3.2e-05 -13.821367 5e-06 -0.5017 -31.182007 -4.02705 -11.723767 -60.072941 7.444485 -13.982785 -7.150223 -2.875058 13.772849 -8.401587 -3.218284 0.347821 -34.211998 0.771658 -0.96301 -17.733652 2.621087 -1e-06 1e-06 2e-06 -17.346493 -20.095324 -4.201808 21.757717 -1.638429 3.86644 1.6e-05 -6.338894 -0.0 -1.697537 -22.592081 -6.194096 -1e-06 -6e-06 -2e-06 23.399628 -70.742088 178.91127 29.956739 -50.034664 6.405505 36.745808 0.014575 0.061679 -2.750223 -15.165286 20.327999 22.182238 -20.376099 49.933613 -16.701952 -16.743692 28.476767 -2.2e-05 -12.690722 1.4e-05 15.657639 -17.732714 2.919005 -0.105918 -1.513859 -4.275906 -5.03907 -5.612898 -2.953573 2e-05 -11.020617 9e-06 -6.111338 -15.895492 -3.840501 2e-06 -0.0 2e-06 -10.283426 -5.680302 -4.341857 11.02839 -11.302481 -2.372653 -1.384255 -14.238681 -6.320168 -0.625404 -26.92449 -3.827608 -4.601206 -49.721619 -3.354623 -13.708603 -7.363496 -3.720955 18.14131 -14.052842 -3.242708 1.9e-05 -18.787432 2.6e-05 -0.429715 -8.456145 2.555553 -2e-06 -0.0 2e-06 -15.92362 -20.094563 -5.473606 30.419443 -7.190898 1.735911 5e-06 -8.162996 1.3e-05 -1.861913 -22.861729 -6.167966 -3e-06 -5e-06 -1e-06 -178.658401 -13.311795 -20.273905 15.77557 -0.020075 0.658679 -81.657967 12.251863 -11.018679 -6.13231 1.447389 2.038105 -0.999996 -0.0 0.0 4.560751 -7.977942 -28.826773 11.48173 0.069802 0.266729 -78.485825 11.103293 -8.148017 -5.939253 0.522415 1.606706 -1.000004 0.0 0.0 
